<mxfile host="app.diagrams.net" modified="2024-07-05T15:43:18.847Z" agent="Mozilla/5.0 (Macintosh; Intel Mac OS X 10_15_7) AppleWebKit/537.36 (KHTML, like Gecko) Chrome/125.0.0.0 Safari/537.36" version="22.1.21" etag="d9JlDi8NTY9ih4bDBGzC" type="github">
  <diagram name="Page-1" id="nOmrvKAAqcgd0ExhlUt-">
    <mxGraphModel>
      <root>
        <mxCell id="0" />
        <mxCell id="1" parent="0" />
      </root>
    </mxGraphModel>
  </diagram>
</mxfile>
